<svg xmlns="http://www.w3.org/2000/svg" viewBox="0 0 200 60" width="200" height="60">
  <!-- Centurion Red Symbol -->
  <g transform="translate(6, 6)">
    <rect width="48" height="48" rx="10" fill="#DC2626"/>
    <!-- Centurion C and gear mark -->
    <path d="M 33 16 C 24 16 17 22 17 30 C 17 38 24 44 33 44 C 37.5 44 41 42 43 39 L 36.5 35 C 35.5 36.5 33.5 37.5 31.5 37.5 C 26.5 37.5 23 34 23 30 C 23 26 26.5 22.5 31.5 22.5 C 33.5 22.5 35.5 23.5 36.5 25 L 43 21 C 41 18 37.5 16 33 16 Z" fill="#FFFFFF"/>
    <circle cx="37" cy="30" r="3" fill="#FFFFFF"/>
  </g>
  <!-- Text -->
  <text x="64" y="32" font-family="system-ui, -apple-system, sans-serif" font-weight="900" font-size="20" fill="#0F172A" letter-spacing="0.5">CENTURION</text>
  <text x="65" y="46" font-family="system-ui, -apple-system, sans-serif" font-weight="700" font-size="9" fill="#DC2626" letter-spacing="3.5">SYSTEMS</text>
</svg>
